<?xml version="1.0" encoding="UTF-8"?>
<svg id="_Слой_1" data-name="Слой 1" xmlns="http://www.w3.org/2000/svg" viewBox="0 0 595.28 582">
  <defs>
    <style>
      .cls-1 {
        fill: none;
        stroke: #1d1d1b;
        stroke-linecap: round;
        stroke-linejoin: round;
        stroke-width: 4px;
      }
    </style>
  </defs>
  <path class="cls-1" d="m394.6,218.45c-4.49,23.25-42.74,53.94-94.75,73.93-51.53,19.81-100.07,22.77-119.35,8.96.09.33.18.66.28.98-.24-.72-.42-1.46-.57-2.21-19.75-55.86,10.55-118.44,68.75-140.82,58.43-22.46,123.12,4,145.63,59.15Z"/>
  <path class="cls-1" d="m366.76,254.18c-5.14,4.08-10.86,8.13-17.08,12.08-4.67-1.43-10.01-4.66-17.24-5.93,5.37,1.12,10.16,4.29,13.45,8.28-13.16,7.98-28.37,15.46-44.99,21.85-12.59,4.84-25.01,8.68-36.86,11.51.02-2.15.29-4.25.65-6.12-.75,2.4-1.51,4.56-2.28,6.51-10.45,2.43-20.45,4.06-29.73,4.91-.57-5.03,1.73-11.18,4.37-16.33-5.03,5.69-12.56,9.49-21.14-1.76-15.61-20.45,17.57-32.1,17.57-32.1,0,0-19.32,6.21-18.99-9.56.33-15.77,12.93-15.59,27.2-14.34-12.39-4.23-21.08-19.38-9.17-28.84,10.24-8.12,17.41.43,24.04,8.93-5.35-8.52-8.28-22.91,3.43-26.51,13.95-4.27,18.56,8.39,23.07,20.77-8.59-29.15,11.7-40.64,20.68-33.95,7.18,5.34,6.35,10.97,2.74,21.15,6.65-9.47,21.69-11.93,27.32-3.54,7.07,10.54.66,18.93-7.31,24.45,7.12-4.91,25.96-7.9,29.63,5.38,2.84,10.27-1.38,13.06-9.75,14.33,12.15.51,23.02,8.47,20.37,18.83Z"/>
  <path class="cls-1" d="m363.19,332.19c4.96,12.91,7.17,25.88,6.89,37.59-12.32,6.13-25.24,11.87-38.7,17.05-10.27,3.95-20.54,7.44-30.72,10.54-8.32-8.59-15.6-19.94-20.69-33.19-1.55-4.02-2.83-8.05-3.84-12.04,13.46-4.5,27.25-9.51,41.26-14.9,14.01-5.39,27.55-11,40.47-16.82,1.97,3.72,3.76,7.65,5.35,11.77Z"/>
  <path class="cls-1" d="m279.9,363.28c5.09,13.25,12.38,24.59,20.69,33.19-21.15,6.44-41.96,11.15-61.72,14.64-4.58-8.62-8.75-17.73-12.42-27.28-2.15-5.59-4.07-11.19-5.77-16.77,17.55-3.97,36.13-9.37,55.38-15.81,1.02,3.99,2.3,8.02,3.84,12.04Z"/>
  <path class="cls-1" d="m416.18,311.3c3.35,8.72,6.15,17.45,8.42,26.12-16.63,11.16-35.03,22.1-54.98,32.02.28-11.71-1.93-24.68-6.89-37.59-1.58-4.11-3.38-8.05-5.35-11.77,18.52-8.36,35.76-17.15,51.26-26.34,2.7,5.67,5.22,11.53,7.53,17.57Z"/>
  <path class="cls-1" d="m478.32,294.8c-.88,50.3-57.08,90.18-131.26,118.69-72.37,27.82-138.33,40.78-173.89,4.84,42.57-2.66,100.82-9.69,159.16-32.12,63.09-24.25,113.57-61.73,145.99-91.42Z"/>
  <path class="cls-1" d="m473.1,263.06c4.29,11.16,5.93,21.89,5.24,32.18-14.83,13.07-32.78,27.29-53.44,41.16-2.27-8.67-5.07-17.4-8.42-26.12-2.32-6.03-4.84-11.89-7.53-17.57,23.07-13.68,42.29-28.24,56.15-43.54,3.37,4.21,6.07,8.85,8.01,13.88Z"/>
  <path class="cls-1" d="m239.12,411.01c-23.6,4.16-45.73,6.56-65.2,8.03-.77-.69-1.51-1.4-2.25-2.14-7.72-7.71-14.01-17.7-18.64-30.31-1.51-4.13-2.49-8.39-2.94-12.75,20.56,1.79,44.55-.95,70.83-6.89,1.7,5.58,3.62,11.18,5.77,16.77,3.67,9.55,7.84,18.66,12.42,27.28Z"/>
  <path class="cls-1" d="m465.1,249.21c-29.69,32.74-83.86,62.1-147.88,86.71s-123.59,41.42-167.47,37.6c-2.35-22.58,9.16-47.85,30.91-71.44,9.3,23.42,64.47,24.07,123.46,1.4,59.15-22.74,99.74-60.31,90.66-83.92-.06-.16-.12-.31-.19-.47,31.37,2.57,56.66,12.84,70.5,30.13Z"/>
  <path class="cls-1" d="m394.11,217.15c-4.49,23.25-42.74,53.94-94.75,73.93-51.53,19.81-100.07,22.77-119.35,8.96.17.66.38,1.31.62,1.95,9.08,23.61,64.38,24.32,123.53,1.59,59.15-22.74,99.74-60.31,90.66-83.92-.07-.18-.14-.36-.22-.54.1,0,.19.01.29.02-.26-.67-.52-1.33-.79-1.99Z"/>
  <circle class="cls-1" cx="306.01" cy="234.73" r="19.64"/>
  <circle class="cls-1" cx="261.69" cy="252.13" r="19.64"/>
  <circle class="cls-1" cx="258.03" cy="252.26" r="8.94"/>
  <circle class="cls-1" cx="311.38" cy="231.77" r="8.94"/>
  <path class="cls-1" d="m281.24,270.78s5.74-.58,12.51-3.59,10.5-7.6,10.5-7.6c0,0,8.49,19.6-2.61,24.87s-20.4-13.68-20.4-13.68Z"/>
  <path class="cls-1" d="m193,262.29c-6.21.35-2.51-18.81-1.29-22.52s4.48-17.11,10.01-15.89-.45,7.62-3.06,18.46c-2.09,8.69-.66,19.67-5.66,19.95Z"/>
  <g>
    <path class="cls-1" d="m374.63,433.06c.4,1.04.53,2.15.42,3.29-.53,5.52-6.74,11.8-15.66,15.23-9.02,3.47-17.95,2.91-21.97-.96-.77-.74-1.36-1.6-1.74-2.59-1.64-4.27,1.22-9.62,6.77-13.86l.44,1.15c.61,1.59,1.6,2.91,2.82,3.92,2.56,2.12,6.16,2.83,9.48,1.55s5.51-4.2,6-7.48c.24-1.57.08-3.23-.53-4.82l-.45-1.17c7.01-.6,12.76,1.46,14.4,5.75Z"/>
    <path class="cls-1" d="m376.96,439.12c2.34,6.09-4.48,14.38-15.23,18.52s-21.37,2.55-23.71-3.55c-.4-1.04-.53-2.15-.42-3.29,4.02,3.87,12.95,4.43,21.97.96s15.13-9.71,15.66-15.23c.77.74,1.36,1.6,1.74,2.59Z"/>
    <path class="cls-1" d="m353.94,410.85l6.53,17c.61,1.59.77,3.25.53,4.82-.49,3.28-2.69,6.21-6,7.48s-6.92.57-9.48-1.55c-1.23-1.01-2.21-2.34-2.82-3.92l-6.53-17,17.78-6.83Z"/>
  </g>
  <g>
    <path class="cls-1" d="m243.46,469.41c-.08,1.11-.42,2.18-1,3.16-2.81,4.78-11.09,7.87-20.61,7.22-9.64-.66-17.5-4.93-19.52-10.13-.39-1-.56-2.03-.49-3.08.31-4.57,5.16-8.21,11.98-9.72l-.08,1.23c-.12,1.69.22,3.32.9,4.75,1.43,3,4.4,5.16,7.95,5.4,3.54.24,6.77-1.49,8.59-4.26.88-1.33,1.44-2.9,1.55-4.6l.09-1.26c6.61,2.41,10.96,6.7,10.64,11.28Z"/>
    <path class="cls-1" d="m243.02,475.89c-.44,6.51-10.12,11.16-21.62,10.38-11.49-.78-20.45-6.69-20.01-13.21.08-1.11.42-2.18,1-3.16,2.02,5.2,9.88,9.48,19.52,10.13,9.53.65,17.81-2.43,20.61-7.22.39,1,.56,2.03.49,3.08Z"/>
    <path class="cls-1" d="m234.05,440.55l-1.24,18.17c-.12,1.7-.67,3.27-1.55,4.6-1.83,2.77-5.05,4.5-8.59,4.26-3.55-.24-6.52-2.4-7.95-5.4-.69-1.43-1.02-3.05-.91-4.75l1.24-18.17,19,1.29Z"/>
  </g>
  <g>
    <path class="cls-1" d="m459.25,384.14c.8.78,1.77,1.33,2.86,1.68,5.29,1.67,13.5-1.59,20.14-8.45,6.72-6.95,9.7-15.38,7.71-20.6-.38-1-.94-1.88-1.7-2.61-3.29-3.18-9.33-2.64-15.41.81l.89.86c1.22,1.18,2.06,2.61,2.51,4.13.95,3.19.19,6.78-2.28,9.34s-6.02,3.43-9.23,2.6c-1.54-.4-3.01-1.19-4.23-2.38l-.9-.87c-3.29,6.22-3.65,12.31-.35,15.5Z"/>
    <path class="cls-1" d="m463.91,388.66c4.69,4.54,14.99,1.51,23-6.77,8.01-8.28,10.7-18.67,6.01-23.21-.8-.78-1.77-1.33-2.86-1.68,1.99,5.22-.99,13.65-7.71,20.6-6.64,6.86-14.85,10.12-20.14,8.45.38,1,.94,1.88,1.7,2.61Z"/>
    <path class="cls-1" d="m446.9,356.42l13.09,12.66c1.23,1.19,2.69,1.98,4.23,2.37,3.21.83,6.76-.04,9.23-2.6,2.48-2.56,3.23-6.15,2.28-9.33-.45-1.52-1.28-2.95-2.5-4.13l-13.09-12.66-13.24,13.69Z"/>
  </g>
  <g>
    <path class="cls-1" d="m477.34,140.26c-.79,2.59-1.85,5.03-3.14,7.29-.64-.16-1.15-.29-1.48-.39l-63.06-19.27c-.51-.16-1.48-.49-2.71-.96.2-2.57.68-5.16,1.47-7.73.02-.08.05-.15.07-.22.93-2.98,2.21-5.75,3.78-8.29,8.41-13.54,25.16-20.3,41.13-15.42,15.97,4.88,26.09,19.84,25.49,35.78-.11,3-.6,6.04-1.51,9.04-.01.06-.03.11-.05.17Z"/>
    <path class="cls-1" d="m468.41,155.16c-9.12,9.14-22.86,13.07-36.07,9.03s-22.41-14.97-24.86-27.65l60.93,18.62Z"/>
    <path class="cls-1" d="m499.21,150.88c-2.79,9.15-19.49,7.7-22.51,6.78l-75.95-23.2c-3.02-.92-19.41-8.86-16.41-18.67,2.79-9.14,19.49-7.7,22.51-6.78l5.43,1.66c-1.58,2.53-2.85,5.3-3.78,8.28-4.65-1.05-13.69-2.56-14.41-.19s8.01,6.31,12.87,8.14c1.23.46,2.21.8,2.71.96l63.06,19.27c.33.1.84.24,1.48.39,4.29,1.03,14.49,2.91,15.26.38.72-2.35-7.12-5.91-12.08-7.84.91-3.01,1.4-6.04,1.51-9.04l3.9,1.19c3.03.92,19.41,8.85,16.41,18.67Z"/>
  </g>
  <path class="cls-1" d="m323.65,69.39l4.55,9.22c.53,1.07,1.55,1.81,2.73,1.98l10.17,1.48c2.97.43,4.15,4.08,2.01,6.17l-7.36,7.17c-.85.83-1.24,2.03-1.04,3.2l1.74,10.13c.51,2.96-2.6,5.21-5.25,3.82l-9.1-4.78c-1.05-.55-2.31-.55-3.37,0l-9.1,4.78c-2.66,1.4-5.76-.86-5.25-3.82l1.74-10.13c.2-1.17-.19-2.37-1.04-3.2l-7.36-7.17c-2.15-2.09-.96-5.74,2.01-6.17l10.17-1.48c1.18-.17,2.2-.91,2.73-1.98l4.55-9.22c1.33-2.69,5.16-2.69,6.49,0Z"/>
  <path class="cls-1" d="m283.66,492.06l7.88,2.67c.91.31,1.92.15,2.69-.43l6.67-4.98c1.95-1.45,4.72-.04,4.68,2.39l-.11,8.32c-.01.96.45,1.87,1.24,2.43l6.8,4.81c1.98,1.4,1.5,4.47-.82,5.19l-7.95,2.47c-.92.29-1.64,1.01-1.93,1.93l-2.47,7.95c-.72,2.32-3.79,2.81-5.19.82l-4.81-6.8c-.56-.79-1.47-1.25-2.43-1.24l-8.32.11c-2.43.03-3.84-2.74-2.39-4.68l4.98-6.67c.58-.77.74-1.78.43-2.69l-2.67-7.88c-.78-2.3,1.42-4.5,3.72-3.72Z"/>
  <path class="cls-1" d="m87.74,239.48l9.76-7.86c1.13-.91,1.74-2.32,1.63-3.77l-.94-12.5c-.28-3.65,3.75-6.03,6.82-4.03l10.5,6.86c1.22.79,2.75.94,4.09.39l11.6-4.76c3.39-1.39,6.89,1.71,5.94,5.24l-3.28,12.1c-.38,1.4-.04,2.9.9,4.01l8.11,9.56c2.37,2.79.51,7.08-3.15,7.27l-12.52.62c-1.45.07-2.77.85-3.54,2.09l-6.58,10.67c-1.92,3.11-6.58,2.67-7.88-.75l-4.46-11.72c-.52-1.36-1.67-2.37-3.08-2.72l-12.18-2.97c-3.56-.87-4.58-5.43-1.73-7.73Z"/>
  <path class="cls-1" d="m94.19,425.54l9.67,6.75c1.12.78,2.56.96,3.84.48l11.04-4.15c3.22-1.21,6.43,1.8,5.43,5.09l-3.43,11.29c-.4,1.31-.13,2.73.73,3.8l7.35,9.22c2.15,2.69.28,6.68-3.17,6.74l-11.79.23c-1.37.03-2.63.72-3.39,1.87l-6.5,9.84c-1.9,2.87-6.26,2.33-7.39-.93l-3.86-11.14c-.45-1.29-1.5-2.28-2.82-2.64l-11.37-3.14c-3.32-.92-4.15-5.24-1.4-7.32l9.4-7.12c1.09-.82,1.7-2.13,1.64-3.5l-.53-11.78c-.15-3.44,3.7-5.56,6.52-3.59Z"/>
  <path class="cls-1" d="m521.11,217.23v7.75c0,.9.44,1.74,1.18,2.25l6.38,4.39c1.86,1.28,1.45,4.14-.7,4.84l-7.37,2.4c-.85.28-1.52.96-1.77,1.82l-2.2,7.43c-.64,2.17-3.49,2.66-4.82.83l-4.56-6.27c-.53-.73-1.38-1.15-2.28-1.12l-7.75.2c-2.26.06-3.61-2.5-2.28-4.33l4.55-6.27c.53-.73.66-1.67.36-2.51l-2.58-7.31c-.75-2.13,1.26-4.2,3.42-3.51l7.37,2.39c.85.28,1.79.12,2.5-.43l6.15-4.71c1.8-1.38,4.39-.1,4.39,2.17Z"/>
  <path class="cls-1" d="m167.96,146.82c-18.49-.79-33.67-15.66-34.82-34.13-.91-14.68,6.87-27.63,18.69-34.21,2.21-1.23,1.66-4.54-.8-5.13-4.69-1.12-9.65-1.57-14.77-1.21-24.02,1.66-43.45,21.13-45.05,45.15-1.89,28.35,20.55,51.94,48.49,51.94,15.37,0,29.07-7.14,37.97-18.29,1.58-1.98-.11-4.87-2.62-4.49-2.3.35-4.67.48-7.1.38Z"/>
  <circle class="cls-1" cx="236.81" cy="134.87" r="16.19"/>
  <path class="cls-1" d="m255.91,157.01c-2.38.75-4.76,1.58-7.12,2.49-3.63,1.39-7.15,2.95-10.55,4.65l-5.17-13.47c1.5.41,3.08.59,4.72.53,5.5-.2,10.26-3.11,13.03-7.41l5.09,13.22Z"/>
</svg>